#!OML:ASF I:\Actors\actors\Patient Classification 2\Patient 1\Session 1\actor1.ASF
:FULLY-SPECIFIED
:DEGREES
571
root -0.470015 18.6838 5.74983 1.54449 -3.57392 -1.53248
lowerback 8.42954 1.52056 -1.16322
upperback -3.73304 1.85363 -0.552037
thorax -8.71186 0.949233 -0.224844
lowerneck -19.2094 -3.0994 0.134092
upperneck 21.1429 -5.23987 3.43652
head 10.0035 -2.00002 0.443809
rclavicle -1.27968e-014 0
rhumerus 25.0093 41.2521 -32.4474
rradius 137.988
rwrist -72.9725
rhand 23.5486 -66.3188
rfingers 7.12502
rthumb 47.8253 -88.6127
lclavicle -1.27968e-014 0
lhumerus -69.589 -48.3131 126.104
lradius 81.6608
lwrist 59.7948
lhand 7.95748 0.461481
lfingers 7.12502
lthumb 33.1866 27.4221
rfemur 0 0 0
rtibia 0
rfoot 0 0
rtoes 0
lfemur -3.77977 -3.2013 -13.496
ltibia 22.5793
lfoot -24.844 16.9003
ltoes -54.8951
572
root -0.470329 18.684 5.75609 1.59627 -3.58194 -1.55702
lowerback 8.34804 1.49809 -1.15058
upperback -3.77162 1.82726 -0.537414
thorax -8.70584 0.936404 -0.210672
lowerneck -19.2269 -3.05714 0.217251
upperneck 20.9926 -5.18303 3.37573
head 9.94782 -1.97739 0.417361
rclavicle -2.11706e-014 -1.19271e-015
rhumerus 24.2591 41.49 -33.3691
rradius 137.92
rwrist -73.5613
rhand 23.8548 -66.2406
rfingers 7.12502
rthumb 48.1077 -88.403
lclavicle -2.11706e-014 -1.19271e-015
lhumerus -69.4518 -48.0482 125.843
lradius 81.7121
lwrist 59.6903
lhand 7.96194 0.437732
lfingers 7.12502
lthumb 33.1908 27.3975
rfemur 0 0 0
rtibia 0
rfoot 0 0
rtoes 0
lfemur -3.81345 -3.19758 -13.4684
ltibia 22.5809
lfoot -24.8564 16.9292
ltoes -54.8506
573
root -0.470833 18.6839 5.76273 1.64789 -3.59087 -1.5837
lowerback 8.25473 1.49486 -1.13222
upperback -3.80644 1.82701 -0.529715
thorax -8.68859 0.935729 -0.210768
lowerneck -19.2313 -3.03215 0.265949
upperneck 20.8415 -5.14956 3.35412
head 9.89221 -1.96385 0.407164
rclavicle 1.83876e-014 1.15295e-014
rhumerus 23.1684 41.8901 -34.5684
rradius 137.814
rwrist -74.3931
rhand 23.8616 -66.1853
rfingers 7.12502
rthumb 48.1139 -88.3448
lclavicle 1.83876e-014 1.15295e-014
lhumerus -69.3229 -47.8124 125.572
lradius 81.8092
lwrist 59.6434
lhand 8.08783 0.516915
lfingers 7.12502
lthumb 33.3105 27.4511
rfemur 0 0 0
rtibia 0
rfoot 0 0
rtoes 0
lfemur -3.84209 -3.14194 -13.435
ltibia 22.5665
lfoot -24.8806 16.897
ltoes -54.9132
574
root -0.471589 18.6833 5.76976 1.67312 -3.61363 -1.58318
lowerback 8.15372 1.50048 -1.15325
upperback -3.84051 1.83388 -0.5242
thorax -8.66736 0.940691 -0.191965
lowerneck -19.0014 -2.97166 0.215772
upperneck 20.5168 -5.06635 3.50255
head 9.73931 -1.9223 0.483348
rclavicle -1.21507e-014 -4.77083e-015
rhumerus 21.8302 42.4838 -35.9783
rradius 137.701
rwrist -75.208
rhand 23.759 -66.1515
rfingers 7.12502
rthumb 48.0194 -88.3553
lclavicle -1.21507e-014 -4.77083e-015
lhumerus -69.178 -47.5455 125.317
lradius 81.8984
lwrist 59.6041
lhand 8.18648 0.66482
lfingers 7.12502
lthumb 33.4043 27.5788
rfemur 0 0 0
rtibia 0
rfoot 0 0
rtoes 0
lfemur -3.82665 -3.11709 -13.4388
ltibia 22.5326
lfoot -24.9118 16.8895
ltoes -55.0201
575
root -0.473513 18.6833 5.77612 1.69593 -3.60707 -1.50697
lowerback 8.04488 1.49573 -1.27709
upperback -3.8844 1.81424 -0.526492
thorax -8.65526 0.938384 -0.119639
lowerneck -18.5176 -2.87446 0.0564583
upperneck 20.0063 -4.93084 3.83575
head 9.48271 -1.85151 0.651589
rclavicle 9.7156e-015 4.37326e-015
rhumerus 20.2159 43.2891 -37.6953
rradius 137.555
rwrist -75.6562
rhand 23.8427 -66.0018
rfingers 7.12502
rthumb 48.0966 -88.1694
lclavicle 9.7156e-015 4.37326e-015
lhumerus -68.9255 -47.1945 125.008
lradius 81.923
lwrist 59.63
lhand 8.41919 0.944674
lfingers 7.12502
lthumb 33.6255 27.8108
rfemur 0 0 0
rtibia 0
rfoot 0 0
rtoes 0
lfemur -3.80941 -3.12846 -13.5188
ltibia 22.4912
lfoot -24.9346 16.856
ltoes -55.0171
576
root -0.475353 18.6837 5.78207 1.74388 -3.59666 -1.41775
lowerback 7.93476 1.48562 -1.41377
upperback -3.94844 1.787 -0.516681
thorax -8.66496 0.933636 -0.0265793
lowerneck -18.1879 -2.84342 -0.0901075
upperneck 19.7273 -4.86224 3.98712
head 9.33156 -1.82469 0.741788
rclavicle 1.1281e-014 6.36111e-015
rhumerus 18.3253 44.3279 -39.7523
rradius 137.398
rwrist -75.8066
rhand 24.3892 -66.0269
rfingers 7.12502
rthumb 48.5997 -87.9549
lclavicle 1.1281e-014 6.36111e-015
lhumerus -68.6142 -46.7333 124.676
lradius 81.9065
lwrist 59.6636
lhand 8.7926 1.15464
lfingers 7.12502
lthumb 33.9803 27.9428
rfemur 0 0 0
rtibia 0
rfoot 0 0
rtoes 0
lfemur -3.82421 -3.11283 -13.6098
ltibia 22.4496
lfoot -24.9384 16.8273
ltoes -55.004
577
root -0.477403 18.6841 5.78715 1.80061 -3.59158 -1.41087
lowerback 7.82335 1.46481 -1.47939
upperback -4.00347 1.75718 -0.466858
thorax -8.66282 0.924912 0.0695249
lowerneck -18.0878 -2.8355 -0.237978
upperneck 19.6939 -4.81142 4.00891
head 9.30439 -1.81209 0.781683
rclavicle -3.22528e-014 -4.77083e-015
rhumerus 16.238 45.5772 -42.0635
rradius 137.225
rwrist -75.7954
rhand 25.0293 -66.0579
rfingers 7.12502
rthumb 49.188 -87.6968
lclavicle -3.22528e-014 -4.77083e-015
lhumerus -68.3377 -46.2075 124.393
lradius 81.9231
lwrist 59.5475
lhand 8.91662 1.11342
lfingers 7.12502
lthumb 34.0981 27.8754
rfemur 0 0 0
rtibia 0
rfoot 0 0
rtoes 0
lfemur -3.84808 -3.16066 -13.6165
ltibia 22.4135
lfoot -24.9617 16.9021
ltoes -55.0103
578
root -0.480596 18.6838 5.79233 1.82036 -3.58954 -1.45693
lowerback 7.72808 1.44944 -1.52892
upperback -4.02271 1.7383 -0.395785
thorax -8.63154 0.921084 0.177598
lowerneck -18.023 -2.80059 -0.37373
upperneck 19.6463 -4.72714 4.03423
head 9.27766 -1.78221 0.824835
rclavicle 9.14409e-015 -6.75868e-015
rhumerus 13.8808 46.9356 -44.6041
rradius 137.017
rwrist -75.6854
rhand 25.1329 -65.7326
rfingers 7.12502
rthumb 49.2832 -87.3238
lclavicle 9.14409e-015 -6.75868e-015
lhumerus -68.0911 -45.7158 124.148
lradius 81.9701
lwrist 59.3588
lhand 8.86878 1.13272
lfingers 7.12502
lthumb 34.0526 27.9048
rfemur 0 0 0
rtibia 0
rfoot 0 0
rtoes 0
lfemur -3.8303 -3.28505 -13.5714
ltibia 22.3908
lfoot -25.0155 17.0289
ltoes -55.0077
579
root -0.483888 18.6829 5.79851 1.80441 -3.61754 -1.46354
lowerback 7.64535 1.45597 -1.60526
upperback -4.02744 1.74354 -0.351481
thorax -8.59232 0.929509 0.268598
lowerneck -17.8759 -2.80102 -0.428668
upperneck 19.5283 -4.69034 3.97242
head 9.20821 -1.78083 0.819435
rclavicle 5.71506e-016 -7.15625e-015
rhumerus 11.1822 48.1831 -47.4747
rradius 136.759
rwrist -75.8224
rhand 25.2028 -65.7308
rfingers 7.12502
rthumb 49.3473 -87.2896
lclavicle 5.71506e-016 -7.15625e-015
lhumerus -67.8757 -45.3069 123.949
lradius 81.9513
lwrist 59.2075
lhand 8.86483 1.13383
lfingers 7.12502
lthumb 34.0489 27.9067
rfemur 0 0 0
rtibia 0
rfoot 0 0
rtoes 0
lfemur -3.77338 -3.29409 -13.5589
ltibia 22.3785
lfoot -25.0219 17.0484
ltoes -54.9542
